<?xml version="1.0" encoding="utf-8"?>
<!-- Generator: Adobe Illustrator 16.0.0, SVG Export Plug-In . SVG Version: 6.00 Build 0)  -->
<!DOCTYPE svg PUBLIC "-//W3C//DTD SVG 1.1//EN" "http://www.w3.org/Graphics/SVG/1.1/DTD/svg11.dtd">
<svg version="1.1" id="Layer_1" xmlns="http://www.w3.org/2000/svg" xmlns:xlink="http://www.w3.org/1999/xlink" x="0px" y="0px"
	 width="20px" height="20px" viewBox="0 0 20 20" enable-background="new 0 0 20 20" xml:space="preserve">
<g>
	<path fill-rule="evenodd" clip-rule="evenodd" fill="#0D63AE" d="M20,18.165c-0.069,0.041-0.053,0.122-0.068,0.183
		c-0.252,0.984-1.036,1.644-1.986,1.649c-1.067,0.006-2.136,0.002-3.203,0.001c-0.227,0-0.362-0.119-0.364-0.311
		c-0.001-0.191,0.136-0.313,0.36-0.313c1.067-0.001,2.135,0.005,3.203-0.002c0.845-0.005,1.501-0.745,1.47-1.644
		c-0.01-0.283-0.095-0.543-0.235-0.782c-1.31-2.239-2.614-4.481-3.931-6.718c-0.599-1.017-1.919-1.012-2.517,0.006
		c-1.315,2.237-2.624,4.478-3.93,6.719c-0.307,0.526-0.324,1.078-0.037,1.619c0.282,0.532,0.728,0.798,1.301,0.8
		c1.022,0.005,2.044,0.002,3.066,0.002c0.045,0,0.091-0.002,0.137,0c0.2,0.006,0.323,0.12,0.329,0.302
		c0.006,0.191-0.121,0.321-0.33,0.321c-0.963,0.003-1.927,0.002-2.89,0.001c-0.202-0.001-0.406,0.01-0.604-0.022
		c-1.008-0.164-1.706-0.962-1.786-2.047c-0.012-0.163-0.056-0.185-0.19-0.185c-2.103,0.005-4.205,0.003-6.308,0.003
		c-0.796,0-1.187-0.295-1.458-1.099C0.025,16.638,0.01,16.632,0,16.624c0-3.86,0-7.722,0-11.582c0.064-0.021,0.054-0.089,0.07-0.136
		c0.207-0.594,0.671-0.945,1.268-0.948c0.554-0.003,1.107-0.005,1.66,0.003C3.128,3.962,3.16,3.92,3.158,3.787
		C3.15,3.335,3.152,2.884,3.156,2.433c0.011-1.374,1.008-2.429,2.299-2.431C7.2-0.001,8.944,0,10.689,0.001
		c1.325,0.001,2.314,1.058,2.32,2.473c0.002,0.438,0.005,0.875-0.003,1.312c-0.002,0.133,0.027,0.176,0.159,0.174
		c0.547-0.008,1.093-0.005,1.64-0.003c0.788,0.003,1.353,0.6,1.36,1.439c0.003,0.326,0.002,0.653,0,0.979
		c-0.002,0.245-0.109,0.382-0.294,0.382c-0.188,0.001-0.29-0.129-0.291-0.38c-0.002-0.327,0.002-0.653-0.001-0.979
		c-0.005-0.496-0.31-0.814-0.775-0.817c-0.234-0.001-0.469,0.006-0.703-0.003c-0.116-0.004-0.161,0.024-0.154,0.159
		c0.009,0.186,0.02,0.375-0.041,0.557c-0.143,0.431-0.42,0.69-0.847,0.755c-0.09,0.014-0.182,0.014-0.273,0.014
		c-3.131,0.001-6.262-0.01-9.393,0.008C2.669,6.077,2.152,5.571,2.214,4.817c0.015-0.185-0.032-0.256-0.217-0.24
		C1.771,4.597,1.542,4.579,1.313,4.583C0.89,4.59,0.587,4.92,0.586,5.384c-0.002,1.597-0.001,3.194-0.001,4.791
		c0,0.18-0.001,0.361,0,0.542c0.005,0.47,0.304,0.793,0.753,0.795c0.943,0.006,1.888,0.002,2.832,0.002
		c0.729,0,1.458-0.002,2.187,0.002c0.113,0.001,0.163-0.012,0.176-0.159c0.042-0.485,0.397-0.81,0.859-0.813
		c0.456-0.003,0.912-0.003,1.367,0c0.47,0.002,0.811,0.307,0.868,0.803c0.018,0.151,0.067,0.172,0.191,0.17
		c0.442-0.008,0.885-0.007,1.327,0c0.105,0.002,0.165-0.036,0.219-0.13c0.264-0.461,0.548-0.91,0.799-1.379
		c0.745-1.397,2.446-1.506,3.348-0.443c0.012,0.014,0.029,0.023,0.069,0.055c0-0.476,0-0.93,0-1.384
		c0-0.111-0.003-0.222,0.002-0.333C15.59,7.721,15.689,7.623,15.85,7.6c0.148-0.021,0.292,0.105,0.312,0.278
		c0.013,0.116,0.006,0.236,0.006,0.354c0,0.736,0.002,1.472-0.002,2.208c-0.001,0.123,0.026,0.225,0.088,0.33
		c1.116,1.903,2.227,3.81,3.345,5.711c0.188,0.318,0.313,0.658,0.402,1.019C20,17.721,20,17.943,20,18.165z"/>
	<path fill-rule="evenodd" clip-rule="evenodd" fill="#FF6600" d="M14.992,13.613c0,0.374,0.009,0.749-0.002,1.123
		c-0.015,0.549-0.393,0.992-0.881,1.052c-0.486,0.059-0.938-0.256-1.076-0.759c-0.029-0.104-0.044-0.218-0.045-0.327
		c-0.003-0.729-0.004-1.456,0-2.185c0.002-0.432,0.181-0.765,0.54-0.965c0.344-0.192,0.69-0.169,1.016,0.06
		c0.306,0.216,0.444,0.533,0.448,0.919C14.996,12.892,14.993,13.252,14.992,13.613L14.992,13.613z"/>
	<path fill-rule="evenodd" clip-rule="evenodd" fill="#FF6600" d="M13.979,18.458c-0.545-0.002-0.986-0.475-0.99-1.059
		c-0.004-0.593,0.441-1.069,0.999-1.07c0.554,0,1.007,0.481,1.004,1.068C14.988,17.985,14.535,18.461,13.979,18.458z"/>
	<path fill-rule="evenodd" clip-rule="evenodd" fill="#FEFEFE" d="M0.585,11.905c0.322,0.233,0.664,0.235,1.01,0.235
		c1.581-0.004,3.162-0.001,4.743-0.005c0.131,0,0.184,0.018,0.198,0.183c0.039,0.453,0.385,0.786,0.814,0.796
		c0.487,0.011,0.976,0.012,1.464-0.001c0.431-0.01,0.76-0.33,0.813-0.797c0.018-0.16,0.071-0.185,0.202-0.181
		c0.351,0.009,0.7,0.003,1.053,0.003c0.014,0.097-0.049,0.147-0.084,0.208c-0.815,1.399-1.633,2.798-2.45,4.197
		c-0.055,0.094-0.128,0.186-0.15,0.288c-0.061,0.277-0.227,0.297-0.456,0.296c-2.102-0.01-4.204-0.006-6.305-0.006
		c-0.57,0-0.85-0.299-0.85-0.904c0-1.36,0-2.72,0-4.08C0.585,12.07,0.585,12.004,0.585,11.905z"/>
	<path fill-rule="evenodd" clip-rule="evenodd" fill="#FEFEFE" d="M8.071,3.957c-0.996,0-1.992-0.003-2.988,0.004
		c-0.134,0-0.176-0.032-0.172-0.181c0.01-0.437,0-0.875,0.004-1.312c0.003-0.376,0.207-0.59,0.562-0.59
		c1.738-0.001,3.477-0.001,5.215,0c0.351,0,0.557,0.221,0.56,0.595c0.003,0.438-0.007,0.875,0.004,1.313
		c0.004,0.155-0.047,0.176-0.176,0.175C10.076,3.955,9.073,3.957,8.071,3.957z"/>
	<path fill-rule="evenodd" clip-rule="evenodd" fill="#FEFEFE" d="M8.086,4.582c1.692,0,3.385,0.002,5.078-0.004
		c0.153,0,0.21,0.024,0.205,0.208c-0.013,0.517-0.131,0.654-0.614,0.654c-3.125,0-6.25,0-9.375,0c-0.472,0-0.688-0.297-0.584-0.789
		c0.024-0.116,0.101-0.067,0.153-0.067c0.788-0.003,1.575-0.002,2.363-0.002C6.237,4.582,7.161,4.582,8.086,4.582z"/>
	<path fill-rule="evenodd" clip-rule="evenodd" fill="#FEFEFE" d="M8.077,1.252c-0.866,0-1.732-0.001-2.597,0
		C4.792,1.254,4.333,1.744,4.329,2.479C4.326,2.91,4.323,3.34,4.331,3.771c0.002,0.136-0.018,0.193-0.165,0.191
		C3.741,3.955,3.741,3.963,3.741,3.513c0-0.389-0.007-0.778,0.005-1.166c0.029-0.943,0.75-1.711,1.638-1.717
		c1.796-0.011,3.593-0.01,5.39,0c0.902,0.005,1.633,0.793,1.647,1.752c0.008,0.479,0,0.958,0.005,1.437
		c0.001,0.105-0.021,0.14-0.127,0.143c-0.462,0.012-0.462,0.016-0.462-0.472c0-0.354,0.003-0.708-0.001-1.062
		c-0.008-0.665-0.48-1.17-1.104-1.173C9.848,1.249,8.962,1.252,8.077,1.252z"/>
	<path fill-rule="evenodd" clip-rule="evenodd" fill="#FEFEFE" d="M8.09,11.168c0.215,0,0.43-0.002,0.645,0.001
		c0.22,0.002,0.314,0.094,0.319,0.32c0.005,0.229,0.005,0.458-0.001,0.688c-0.005,0.215-0.1,0.313-0.307,0.314
		c-0.442,0.003-0.885,0.003-1.327,0c-0.215-0.002-0.305-0.103-0.308-0.334c-0.002-0.215-0.002-0.43,0-0.645
		c0.002-0.246,0.089-0.342,0.315-0.344C7.648,11.166,7.869,11.168,8.09,11.168z"/>
	<path fill-rule="evenodd" clip-rule="evenodd" fill="#FDFDFD" d="M14.407,13.604c0,0.367,0.005,0.734-0.002,1.102
		c-0.004,0.237-0.14,0.412-0.331,0.455c-0.175,0.039-0.355-0.051-0.446-0.22c-0.047-0.088-0.055-0.184-0.055-0.281
		c-0.001-0.699-0.003-1.399,0-2.1c0.002-0.303,0.167-0.501,0.408-0.506c0.247-0.006,0.422,0.2,0.425,0.511
		C14.41,12.91,14.407,13.257,14.407,13.604z"/>
	<path fill-rule="evenodd" clip-rule="evenodd" fill="#FDFDFD" d="M13.991,16.955c0.226,0.001,0.41,0.194,0.414,0.431
		c0.005,0.243-0.188,0.448-0.419,0.446c-0.234-0.001-0.417-0.203-0.41-0.452C13.583,17.138,13.764,16.953,13.991,16.955z"/>
</g>
</svg>
