<?xml version="1.0" encoding="utf-8"?>
<!-- Generator: Adobe Illustrator 16.0.0, SVG Export Plug-In . SVG Version: 6.00 Build 0)  -->
<!DOCTYPE svg PUBLIC "-//W3C//DTD SVG 1.1//EN" "http://www.w3.org/Graphics/SVG/1.1/DTD/svg11.dtd">
<svg version="1.1" id="Layer_1" xmlns="http://www.w3.org/2000/svg" xmlns:xlink="http://www.w3.org/1999/xlink" x="0px" y="0px"
	 width="20px" height="20px" viewBox="0 0 20 20" enable-background="new 0 0 20 20" xml:space="preserve">
<g>
	<path fill-rule="evenodd" clip-rule="evenodd" fill="#0D63AE" d="M0,10.617c0.077-0.191,0.196-0.348,0.332-0.497
		c2.933-3.223,5.863-6.447,8.792-9.674c0.22-0.242,0.464-0.418,0.788-0.442c0.378-0.029,0.679,0.127,0.937,0.412
		c1.224,1.353,2.451,2.7,3.677,4.05c1.71,1.881,3.418,3.761,5.129,5.639c0.141,0.154,0.267,0.314,0.346,0.513c0,0.11,0,0.22,0,0.33
		c-0.077,0.209-0.207,0.375-0.359,0.526c-0.198,0.199-0.387,0.409-0.581,0.612c-0.354,0.371-0.743,0.367-1.094-0.001
		c-0.175-0.183-0.363-0.353-0.547-0.529c-0.028,0.035,0,0.112,0,0.182c-0.002,2.293-0.014,4.585,0.005,6.877
		c0.008,0.837-0.57,1.444-1.313,1.381c-0.104-0.008-0.209,0.003-0.313-0.002c-0.186-0.007-0.3-0.124-0.302-0.302
		c-0.001-0.177,0.112-0.302,0.296-0.313c0.11-0.008,0.222-0.002,0.332-0.002c0.482-0.002,0.706-0.235,0.706-0.74
		c0.001-2.044,0.001-4.088,0.001-6.132c0-0.51-0.003-1.02,0.001-1.528c0.001-0.097-0.024-0.166-0.087-0.236
		c-2.157-2.371-4.313-4.745-6.468-7.116C10.074,3.4,9.923,3.403,9.717,3.63c-2.152,2.367-4.303,4.735-6.455,7.101
		c-0.068,0.075-0.097,0.148-0.096,0.253c0.004,0.639,0.003,1.28,0.002,1.92c-0.001,0.243-0.106,0.385-0.285,0.39
		c-0.183,0.006-0.3-0.146-0.301-0.396c-0.002-0.453-0.001-0.906-0.001-1.363c-0.183,0.183-0.362,0.354-0.533,0.535
		C1.68,12.46,1.3,12.463,0.927,12.071c-0.193-0.204-0.383-0.413-0.582-0.611C0.197,11.312,0.073,11.15,0,10.947
		C0,10.837,0,10.727,0,10.617z"/>
	<path fill-rule="evenodd" clip-rule="evenodd" fill="#0D63AE" d="M9.024,19.994c-1.726,0-3.45,0-5.175,0
		c-0.777,0-1.268-0.516-1.268-1.337c-0.002-1.37,0-2.738-0.001-4.108c0-0.126,0.001-0.248,0.097-0.343
		c0.085-0.085,0.186-0.104,0.29-0.069c0.104,0.035,0.178,0.116,0.194,0.236c0.009,0.067,0.006,0.137,0.006,0.205
		c0,1.355,0,2.713,0,4.068c0,0.49,0.229,0.728,0.695,0.729c1.088,0,2.175-0.007,3.261,0.005c0.185,0.002,0.208-0.061,0.207-0.231
		c-0.007-1.073-0.008-2.146-0.003-3.22c0.007-1.476,0.907-2.6,2.277-2.854c1.468-0.273,2.979,0.957,3.045,2.534
		c0.049,1.174,0.023,2.353,0.017,3.528c-0.001,0.207,0.055,0.247,0.236,0.242c0.476-0.015,0.951-0.007,1.426-0.005
		c0.241,0.001,0.374,0.117,0.371,0.319c-0.004,0.195-0.129,0.299-0.364,0.299C12.565,19.994,10.795,19.994,9.024,19.994z"/>
	<path fill-rule="evenodd" clip-rule="evenodd" fill="#FF6600" d="M19.413,10.788c-0.01,0.073-0.059,0.11-0.1,0.153
		c-0.216,0.23-0.438,0.454-0.646,0.689c-0.121,0.138-0.203,0.114-0.316-0.012c-1.39-1.537-2.783-3.069-4.177-4.602
		c-1.154-1.27-2.307-2.542-3.464-3.81C10.259,2.71,9.737,2.713,9.284,3.212C6.769,5.98,4.253,8.749,1.737,11.518
		c-0.05,0.055-0.1,0.108-0.15,0.163c-0.067,0.074-0.134,0.071-0.201,0c-0.249-0.264-0.497-0.526-0.746-0.789
		c-0.104-0.108-0.029-0.182,0.04-0.259c0.487-0.535,0.976-1.07,1.463-1.606c2.461-2.709,4.923-5.418,7.384-8.128
		c0.123-0.136,0.244-0.265,0.438-0.278c0.211-0.015,0.353,0.104,0.487,0.253c1.188,1.312,2.379,2.621,3.569,3.931
		c1.754,1.93,3.508,3.86,5.261,5.791C19.335,10.653,19.406,10.699,19.413,10.788z"/>
	<path fill-rule="evenodd" clip-rule="evenodd" fill="#FF6600" d="M9.981,19.376c-0.638,0-1.275-0.002-1.914,0.001
		c-0.087,0-0.158,0.015-0.157-0.13c0.009-1.17-0.014-2.341,0.018-3.51c0.031-1.166,0.97-2.073,2.08-2.069
		c1.102,0.004,2.032,0.909,2.063,2.065c0.032,1.17,0.01,2.341,0.019,3.511c0.001,0.14-0.063,0.133-0.154,0.133
		C11.284,19.374,10.632,19.376,9.981,19.376z"/>
</g>
</svg>
