<?xml version="1.0" encoding="utf-8"?>
<!-- Generator: Adobe Illustrator 16.0.0, SVG Export Plug-In . SVG Version: 6.00 Build 0)  -->
<!DOCTYPE svg PUBLIC "-//W3C//DTD SVG 1.1//EN" "http://www.w3.org/Graphics/SVG/1.1/DTD/svg11.dtd">
<svg version="1.1" id="Layer_1" xmlns="http://www.w3.org/2000/svg" xmlns:xlink="http://www.w3.org/1999/xlink" x="0px" y="0px"
	 width="20px" height="20px" viewBox="0 0 20 20" enable-background="new 0 0 20 20" xml:space="preserve">
<g>
	<path fill-rule="evenodd" clip-rule="evenodd" fill="#0D63AE" d="M0,1.462c0.064-0.058,0.055-0.152,0.076-0.23
		c0.2-0.709,0.741-1.201,1.362-1.229C1.497,0.001,1.556,0,1.614,0C7.207,0,12.799,0,18.392,0c0.826,0,1.335,0.462,1.571,1.418
		C19.967,1.437,19.988,1.448,20,1.462c0,3.266,0,6.533,0,9.799c-0.087,0.177-0.203,0.295-0.382,0.227
		c-0.18-0.07-0.205-0.25-0.204-0.454c0.002-2.031-0.001-4.063,0.005-6.095c0-0.195-0.038-0.241-0.201-0.241
		c-6.146,0.005-12.292,0.005-18.438,0C0.613,4.698,0.562,4.753,0.584,4.943c0.011,0.092-0.001,0.188,0.003,0.281
		c0.009,0.204-0.025,0.384-0.206,0.452C0.202,5.744,0.084,5.627,0,5.448C0,4.12,0,2.791,0,1.462z"/>
	<path fill-rule="evenodd" clip-rule="evenodd" fill="#FF6600" d="M20,16.888c-0.052,0.011-0.044,0.069-0.057,0.109
		c-0.25,0.859-0.754,1.298-1.509,1.31c-0.045,0-0.09,0-0.13,0c-0.044,0.053-0.009,0.09,0.004,0.13
		c0.076,0.254,0.032,0.477-0.125,0.665c-0.193,0.232-0.385,0.468-0.581,0.694c-0.237,0.275-0.503,0.271-0.742-0.01
		c-0.288-0.339-0.577-0.677-0.853-1.03c-0.106-0.137-0.157-0.109-0.251,0.008c-0.27,0.34-0.549,0.668-0.827,0.996
		c-0.28,0.333-0.65,0.236-0.789-0.206c-0.498-1.604-0.997-3.208-1.487-4.815c-0.057-0.181-0.125-0.251-0.288-0.24
		c-0.306,0.018-0.613,0.01-0.918,0.001c-0.776-0.02-1.378-0.756-1.378-1.682c-0.001-0.92,0.603-1.681,1.375-1.687
		c1.602-0.013,3.201-0.01,4.803-0.001c0.654,0.002,1.195,0.54,1.353,1.305c0.15,0.736-0.145,1.505-0.72,1.877
		c-0.034,0.021-0.068,0.042-0.13,0.081c0.362,0.163,0.704,0.318,1.046,0.472c0.055,0.024,0.111,0.044,0.165,0.07
		c0.399,0.188,0.479,0.611,0.179,0.975c-0.278,0.339-0.559,0.676-0.843,1.01c-0.077,0.087-0.101,0.154-0.004,0.235
		c0.006,0.003,0.01,0.01,0.014,0.016c0.213,0.348,0.484,0.515,0.853,0.437c0.112-0.024,0.232-0.001,0.35-0.006
		c0.521-0.019,0.903-0.482,0.905-1.113c0.004-1.125,0.002-2.249,0-3.374c0-0.198,0.016-0.377,0.196-0.459
		c0.185-0.083,0.288,0.058,0.39,0.202C20,14.199,20,15.544,20,16.888z"/>
	<path fill-rule="evenodd" clip-rule="evenodd" fill="#0D63AE" d="M0,6.995c0.105-0.141,0.213-0.277,0.394-0.192
		c0.18,0.084,0.194,0.264,0.194,0.461c-0.002,3.039-0.001,6.079-0.001,9.118c0,0.779,0.364,1.221,1.012,1.221
		c3.528,0.002,7.056,0,10.584,0.002c0.083,0,0.17,0.001,0.25,0.023c0.146,0.042,0.222,0.174,0.213,0.346
		c-0.009,0.181-0.095,0.306-0.256,0.327c-0.07,0.009-0.143,0.006-0.215,0.006c-3.495,0-6.989,0-10.485,0
		c-0.912,0-1.366-0.394-1.661-1.438C0.025,16.856,0.01,16.851,0,16.842C0,13.559,0,10.277,0,6.995z"/>
	<path fill-rule="evenodd" clip-rule="evenodd" fill="#FF6600" d="M7.104,11.19c0.677,0.28,1.231,0.748,1.657,1.427
		c0.196,0.313,0.353,0.653,0.463,1.022c0.158,0.521-0.052,0.891-0.511,0.892c-1.205,0.002-2.409,0-3.612,0
		c-1.002,0-2.005,0.002-3.007,0c-0.5,0-0.714-0.362-0.534-0.92c0.366-1.131,1.024-1.916,1.968-2.35
		c0.142-0.066,0.183-0.121,0.077-0.265c-0.009-0.011-0.012-0.027-0.016-0.042c-0.093-0.306-0.226-0.563-0.443-0.785
		C2.889,9.907,2.801,9.518,2.837,9.105c0.028-0.303,0.159-0.53,0.387-0.655c0.109-0.06,0.15-0.137,0.167-0.273
		c0.136-1.132,0.861-1.965,1.807-2.088c1.084-0.141,2.085,0.812,2.218,2.117c0.01,0.107,0.021,0.181,0.117,0.233
		c0.3,0.166,0.425,0.467,0.408,0.854c-0.017,0.409-0.15,0.761-0.421,1.014c-0.104,0.097-0.172,0.197-0.205,0.348
		C7.275,10.844,7.185,11.008,7.104,11.19z"/>
	<path fill-rule="evenodd" clip-rule="evenodd" fill="#FF6600" d="M13.841,10.373c-0.801,0-1.601,0.008-2.401-0.001
		c-0.683-0.009-1.277-0.644-1.359-1.433c-0.091-0.871,0.339-1.658,1.025-1.879c0.236-0.077,0.477-0.071,0.718-0.056
		c0.164,0.01,0.282,0.174,0.279,0.356c-0.003,0.185-0.121,0.329-0.289,0.34c-0.117,0.008-0.235-0.001-0.352,0.004
		C10.997,7.725,10.65,8.152,10.655,8.7c0.003,0.547,0.354,0.968,0.822,0.971c1.583,0.002,3.164,0.002,4.744,0
		c0.47-0.002,0.821-0.423,0.826-0.97c0.006-0.552-0.351-0.992-0.827-0.996c-0.932-0.008-1.861-0.002-2.792-0.003
		c-0.077,0-0.156,0.013-0.228-0.039c-0.12-0.084-0.176-0.211-0.15-0.373c0.03-0.186,0.136-0.283,0.289-0.288
		c0.229-0.008,0.456-0.003,0.684-0.003c0.742,0,1.483-0.008,2.226,0.004c0.663,0.011,1.215,0.562,1.357,1.33
		c0.139,0.747-0.181,1.536-0.762,1.875c-0.209,0.121-0.429,0.17-0.661,0.169C15.402,10.372,14.622,10.374,13.841,10.373
		C13.841,10.374,13.841,10.374,13.841,10.373z"/>
	<path fill-rule="evenodd" clip-rule="evenodd" fill="#FEFEFE" d="M9.996,4C6.931,4,3.865,3.998,0.799,4.005
		c-0.18,0.001-0.221-0.058-0.217-0.266c0.012-0.625,0.003-1.25,0.005-1.875c0.001-0.698,0.379-1.156,0.964-1.159
		C2.28,0.7,3.008,0.703,3.738,0.703c4.888,0,9.775,0,14.664,0c0.545,0,0.917,0.336,0.999,0.916c0.023,0.175,0.014,0.358,0.015,0.538
		c0.001,0.531-0.009,1.063,0.004,1.593c0.005,0.2-0.032,0.256-0.207,0.255C16.139,3.998,13.067,4,9.996,4z"/>
	<path fill-rule="evenodd" clip-rule="evenodd" fill="#FEFEFE" d="M14.633,19.128c-0.593-1.913-1.175-3.79-1.772-5.72
		c1.602,0.716,3.17,1.417,4.767,2.129c-0.331,0.396-0.647,0.772-0.964,1.15c-0.235,0.281-0.235,0.423-0.002,0.704
		c0.313,0.374,0.623,0.755,0.941,1.123c0.093,0.108,0.116,0.178,0.006,0.289c-0.13,0.13-0.237,0.382-0.366,0.394
		c-0.134,0.013-0.245-0.247-0.365-0.388c-0.247-0.29-0.487-0.587-0.732-0.877c-0.19-0.224-0.331-0.224-0.519,0.001
		C15.3,18.323,14.977,18.715,14.633,19.128z"/>
	<path fill-rule="evenodd" clip-rule="evenodd" fill="#FEFEFE" d="M12.35,13.793c-0.335,0-0.653,0.019-0.971-0.004
		c-0.423-0.03-0.737-0.487-0.723-1.013c0.013-0.521,0.359-0.936,0.807-0.944c0.502-0.01,1.004-0.002,1.504-0.002
		c1.08,0,2.16-0.003,3.239,0.001c0.436,0.001,0.778,0.355,0.831,0.84c0.058,0.51-0.177,0.992-0.592,1.081
		c-0.404,0.086-0.826,0.131-1.229-0.046c-0.762-0.334-1.521-0.672-2.279-1.017c-0.213-0.096-0.408-0.099-0.579,0.099
		c-0.176,0.206-0.185,0.45-0.094,0.711C12.294,13.592,12.318,13.688,12.35,13.793z"/>
	<path fill-rule="evenodd" clip-rule="evenodd" fill="#FEFEFE" d="M5.404,11.589c-0.686,0.002-1.282-0.581-1.419-1.394
		C3.949,9.989,3.89,9.836,3.689,9.793C3.525,9.758,3.373,9.375,3.421,9.179C3.445,9.077,3.51,9.06,3.583,9.042
		C3.921,8.96,3.941,8.93,3.949,8.501c0.019-0.919,0.58-1.632,1.352-1.72C6,6.702,6.667,7.31,6.818,8.175
		c0.026,0.151,0.02,0.311,0.028,0.466c0.01,0.188,0.068,0.327,0.236,0.379C7.19,9.053,7.347,9.004,7.357,9.231
		c0.01,0.214-0.109,0.517-0.257,0.56c-0.184,0.054-0.244,0.192-0.282,0.392C6.663,11.021,6.087,11.588,5.404,11.589z"/>
	<path fill-rule="evenodd" clip-rule="evenodd" fill="#FEFEFE" d="M5.388,13.829c-1.028,0-2.056-0.005-3.083,0.004
		c-0.167,0.001-0.188-0.045-0.116-0.217c0.39-0.929,0.995-1.539,1.835-1.813c0.083-0.026,0.142-0.015,0.216,0.042
		c0.771,0.602,1.546,0.603,2.318,0.003c0.063-0.049,0.115-0.071,0.196-0.045c0.847,0.277,1.456,0.894,1.841,1.836
		c0.065,0.155,0.041,0.193-0.104,0.191C7.456,13.825,6.423,13.829,5.388,13.829z"/>
	<path fill-rule="evenodd" clip-rule="evenodd" fill="#FF6600" d="M5.823,1.7C6.12,1.698,6.368,1.997,6.367,2.354
		c0,0.357-0.251,0.655-0.548,0.651C5.532,3,5.288,2.708,5.281,2.362C5.275,2.01,5.527,1.702,5.823,1.7z"/>
	<path fill-rule="evenodd" clip-rule="evenodd" fill="#FF6600" d="M2.483,1.7c0.297-0.001,0.543,0.295,0.542,0.655
		c-0.001,0.352-0.236,0.64-0.527,0.649c-0.296,0.009-0.546-0.284-0.55-0.643C1.944,1.999,2.185,1.702,2.483,1.7z"/>
	<path fill-rule="evenodd" clip-rule="evenodd" fill="#FF6600" d="M4.694,2.367C4.688,2.726,4.435,3.018,4.139,3.004
		C3.848,2.991,3.615,2.7,3.615,2.35C3.617,1.991,3.867,1.694,4.163,1.7C4.461,1.707,4.698,2.003,4.694,2.367z"/>
	<path fill-rule="evenodd" clip-rule="evenodd" fill="#0D63AE" d="M5.424,10.222c0.136,0,0.273,0,0.409,0
		c0.07,0,0.131,0.015,0.149,0.11c0.014,0.08-0.018,0.131-0.07,0.178c-0.245,0.225-0.751,0.222-0.992-0.008
		c-0.047-0.047-0.088-0.097-0.062-0.179c0.024-0.075,0.072-0.102,0.137-0.102C5.139,10.222,5.282,10.222,5.424,10.222z"/>
	<path fill-rule="evenodd" clip-rule="evenodd" fill="#0D63AE" d="M4.658,8.78c0.151-0.004,0.288,0.15,0.295,0.332
		C4.96,9.3,4.818,9.476,4.662,9.473C4.51,9.471,4.378,9.31,4.377,9.128C4.375,8.944,4.505,8.785,4.658,8.78z"/>
	<path fill-rule="evenodd" clip-rule="evenodd" fill="#0D63AE" d="M6.463,9.115c0.004,0.183-0.119,0.346-0.271,0.356
		c-0.15,0.011-0.287-0.138-0.295-0.323C5.886,8.95,6.012,8.783,6.174,8.78C6.327,8.778,6.458,8.93,6.463,9.115z"/>
</g>
</svg>
